<?xml version="1.0" standalone="no"?>
<!DOCTYPE svg PUBLIC "-//W3C//DTD SVG 20010904//EN"
 "http://www.w3.org/TR/2001/REC-SVG-20010904/DTD/svg10.dtd">
<svg version="1.0" xmlns="http://www.w3.org/2000/svg"
 width="192.000000pt" height="192.000000pt" viewBox="0 0 192.000000 192.000000"
 preserveAspectRatio="xMidYMid meet">
<metadata>
Created by potrace 1.14, written by Peter Selinger 2001-2017
</metadata>
<g transform="translate(0.000000,192.000000) scale(0.100000,-0.100000)"
fill="#000000" stroke="none">
<path d="M258 1255 c-2 -228 -1 -415 2 -415 3 0 3 -36 0 -80 -3 -44 -3 -80 0
-80 3 0 4 -97 2 -215 l-3 -215 246 0 245 0 0 153 c0 83 5 159 10 167 5 8 10
11 10 5 0 -5 9 5 20 23 11 17 22 32 26 32 9 0 34 -28 34 -39 0 -6 3 -11 8 -11
4 0 16 -17 27 -37 11 -20 25 -41 30 -47 6 -6 45 -64 88 -128 l77 -118 290 0
c259 0 290 2 290 16 0 9 -38 71 -83 137 -46 67 -114 167 -152 222 -37 55 -72
103 -77 106 -6 3 -8 8 -6 11 1 2 -7 18 -20 34 -12 16 -57 81 -101 145 l-78
115 39 48 c21 27 38 53 38 58 0 5 5 6 10 3 6 -3 10 -2 10 3 0 6 29 46 65 91
36 44 65 85 65 91 0 5 7 10 15 10 8 0 15 6 15 14 0 8 4 16 8 18 9 4 163 193
183 226 8 12 18 22 24 22 6 0 12 11 13 25 l2 25 -278 0 c-161 0 -283 -4 -292
-10 -8 -5 -12 -10 -8 -10 7 0 -108 -158 -147 -203 -14 -15 -26 -30 -27 -35 -3
-16 -130 -176 -128 -162 1 8 2 106 1 218 l-1 202 -245 0 -245 0 -2 -415z"/>
</g>
</svg>
